<?xml version="1.0" encoding="utf-8"?>
<!-- Generator: Adobe Illustrator 24.0.1, SVG Export Plug-In . SVG Version: 6.00 Build 0)  -->
<svg version="1.1" id="Layer_1" xmlns="http://www.w3.org/2000/svg" xmlns:xlink="http://www.w3.org/1999/xlink" x="0px" y="0px"
	 viewBox="0 0 523.7 604.7" style="enable-background:new 0 0 523.7 604.7;" xml:space="preserve">
<style type="text/css">
	.st0{fill:#494949;}
	.st1{fill:#FFFFFF;}
</style>
<title>Asset 5</title>
<polygon class="st0" points="0,151.2 0,453.5 261.8,604.7 523.7,453.5 523.7,151.2 261.8,0 "/>
<polygon class="st1" points="427.8,125 263.1,220.1 168.9,165.8 333.7,70.7 263.1,29.9 98.3,125 27.7,165.8 98.3,206.5 192.5,260.9 
	263.1,301.6 333.7,260.9 498.4,165.8 "/>
<polygon class="st1" points="254.2,479.5 27.7,348.8 27.7,272.7 254.2,403.4 "/>
<polygon class="st1" points="254.2,568.3 186.3,529 186.3,275.4 254.2,314.6 "/>
<polygon class="st1" points="95.7,476.7 27.7,437.5 27.7,183.9 95.7,223.1 "/>
<polygon class="st1" points="498.4,437.5 272.1,568.1 272.1,492.1 498.4,361.5 "/>
<polygon class="st1" points="498.4,437.5 430.5,476.7 430.5,223.2 498.4,184.1 "/>
<polygon class="st1" points="340,528.9 272.1,568.1 272.1,441.4 340,402.2 "/>
</svg>
